<svg width="80" height="80" viewBox="0 0 80 80" fill="none" xmlns="http://www.w3.org/2000/svg">
  <rect x="20" y="10" width="40" height="60" rx="12" fill="#1E3A8A" opacity="0.12" />
  <path d="M28 24C28 18.4771 32.4771 14 38 14H42C47.5229 14 52 18.4771 52 24V34C52 36.2091 50.2091 38 48 38H32C29.7909 38 28 36.2091 28 34V24Z" stroke="#4361EE" stroke-width="3" stroke-linecap="round" stroke-linejoin="round" />
  <path d="M24 36C21.7909 36 20 37.7909 20 40V54C20 56.2091 21.7909 58 24 58H28" stroke="#3A86FF" stroke-width="3" stroke-linecap="round" />
  <path d="M56 36C58.2091 36 60 37.7909 60 40V54C60 56.2091 58.2091 58 56 58H52" stroke="#3A86FF" stroke-width="3" stroke-linecap="round" />
  <path d="M30 46H50" stroke="#4361EE" stroke-width="3" stroke-linecap="round" />
  <path d="M34 52H46" stroke="#4361EE" stroke-width="3" stroke-linecap="round" />
  <path d="M30 26V20" stroke="#3A86FF" stroke-width="3" stroke-linecap="round" />
  <path d="M50 26V20" stroke="#3A86FF" stroke-width="3" stroke-linecap="round" />
  <path d="M40 12V8" stroke="#3A86FF" stroke-width="3" stroke-linecap="round" />
</svg>
